<svg xmlns="http://www.w3.org/2000/svg" xmlns:xlink="http://www.w3.org/1999/xlink" id="svg" width="400" height="266" style="display:block;background:#fff" version="1.1" viewBox="0 0 400 266">
    <metadata xmlns:cc="http://www.makingmorehealth.org/terms-of-use" xmlns:dc="http://purl.org/dc/elements/1.1/" xmlns:rdf="http://www.w3.org/1999/02/22-rdf-syntax-ns#" id="license">
        <rdf:RDF xmlns:dc="http://purl.org/dc/elements/1.0/" xmlns:rdf="http://www.w3.org/1999/02/22-rdf-syntax-ns#">
            <rdf:Description dc:creator="Making More Health | Simon Golms" dc:date="2018-11-19" dc:description="Making More Health (MMH) Logo Icon" dc:title="Making More Health - MMH - Logo" rdf:about="http://www.makingmorehealth.org/"/>
        </rdf:RDF>
    </metadata>
    <path id="path0" fill="#ff0000" fill-rule="evenodd" stroke="none" d="M0.000 133.229 L 0.000 266.458 200.000 266.458 L 400.000 266.458 400.000 133.229 L 400.000 0.000 200.000 0.000 L 0.000 0.000 0.000 133.229 M56.583 33.386 C 59.313 41.575,61.740 48.276,61.977 48.276 C 62.213 48.276,63.583 45.243,65.020 41.536 L 67.633 34.796 67.661 41.066 L 67.690 47.335 60.572 66.951 C 56.658 77.739,53.272 86.749,53.049 86.972 C 52.184 87.837,51.242 85.277,41.699 56.113 C 30.990 23.383,31.376 24.232,26.535 22.825 C 24.031 22.097,23.197 21.560,23.197 20.676 C 23.197 18.473,24.982 18.202,38.506 18.351 L 51.620 18.495 56.583 33.386 M99.561 18.934 C 100.853 20.226,100.389 21.872,98.451 22.874 C 95.302 24.503,95.298 24.547,95.298 53.009 L 95.298 79.769 97.960 82.202 C 100.182 84.234,100.508 84.818,99.930 85.735 C 98.958 87.277,70.249 87.753,69.000 86.248 C 67.915 84.942,68.651 83.248,70.845 82.004 L 72.727 80.936 72.727 49.559 L 72.727 18.182 85.768 18.182 C 95.075 18.182,99.024 18.397,99.561 18.934 M188.088 50.668 L 188.088 83.153 190.330 84.223 C 194.876 86.390,192.897 86.834,178.683 86.834 C 164.466 86.834,162.491 86.390,167.043 84.220 L 169.291 83.148 169.128 52.721 L 168.966 22.294 167.398 21.502 C 166.536 21.066,165.568 20.617,165.248 20.505 C 164.927 20.393,164.848 19.824,165.071 19.241 C 165.432 18.301,166.747 18.182,176.783 18.182 L 188.088 18.182 188.088 50.668 M249.922 21.083 C 254.640 23.321,255.913 27.746,252.877 31.354 C 249.041 35.912,241.412 35.716,237.673 30.962 C 232.958 24.969,242.275 17.454,249.922 21.083 M128.527 44.464 C 128.527 45.987,128.212 46.365,126.653 46.707 C 124.327 47.218,122.257 49.754,122.257 52.093 C 122.257 57.578,116.036 60.446,111.884 56.875 C 105.926 51.750,114.688 42.848,125.862 42.674 C 128.398 42.635,128.527 42.722,128.527 44.464 M143.541 44.688 C 148.819 47.325,148.877 47.534,149.092 64.761 C 149.228 75.662,149.492 80.037,150.033 80.381 C 151.394 81.246,152.855 80.900,154.820 79.247 C 159.013 75.719,160.245 80.154,156.154 84.046 C 151.454 88.516,143.903 89.567,138.024 86.568 C 133.587 84.304,133.542 84.059,133.542 62.014 L 133.542 42.461 137.147 42.878 C 139.130 43.107,142.007 43.922,143.541 44.688 M310.220 44.820 C 315.715 47.811,315.630 47.490,315.987 66.458 L 316.301 83.072 318.339 83.969 C 319.562 84.508,320.376 85.321,320.376 86.007 C 320.376 87.067,319.585 87.147,309.091 87.147 L 297.806 87.147 297.806 68.374 C 297.806 47.834,297.770 47.649,293.863 47.649 C 292.974 47.649,292.753 47.254,292.905 45.941 C 293.335 42.243,304.193 41.540,310.220 44.820 M36.350 67.596 C 36.366 78.655,36.472 78.967,41.127 81.594 C 44.098 83.271,44.555 83.774,44.391 85.189 L 44.201 86.834 33.856 86.834 L 23.511 86.834 23.319 85.176 C 23.153 83.746,23.607 83.243,26.614 81.523 C 31.469 78.745,31.342 79.315,31.398 60.073 L 31.449 42.947 33.893 50.470 C 36.295 57.866,36.337 58.157,36.350 67.596 M349.843 45.141 C 349.843 46.422,349.533 47.022,348.872 47.022 C 348.337 47.022,347.068 47.452,346.050 47.978 L 344.201 48.935 344.201 65.517 L 344.201 82.099 346.050 83.056 C 347.068 83.582,348.337 84.013,348.872 84.013 C 349.519 84.013,349.843 84.602,349.843 85.778 L 349.843 87.544 346.182 87.112 C 320.414 84.074,320.871 46.449,346.708 43.695 C 347.915 43.566,349.114 43.416,349.373 43.361 C 349.632 43.305,349.843 44.107,349.843 45.141 M222.360 44.870 C 222.970 46.460,221.679 47.146,217.202 47.610 C 213.958 47.945,212.732 48.361,211.879 49.415 C 210.476 51.148,209.859 51.140,209.083 49.379 C 208.656 48.409,207.725 47.855,206.081 47.591 C 203.038 47.103,202.023 46.167,203.113 44.854 C 204.313 43.408,221.804 43.422,222.360 44.870 M254.545 62.645 C 254.545 83.494,254.491 83.084,257.436 84.315 C 262.619 86.480,259.782 87.147,245.387 87.147 C 231.013 87.147,228.670 86.501,234.026 84.013 L 236.050 83.072 236.050 65.517 L 236.050 47.962 234.026 47.022 C 228.904 44.642,231.129 43.887,243.260 43.887 L 254.545 43.887 254.545 62.645 M288.549 63.480 L 288.715 83.072 290.752 84.013 C 295.653 86.275,293.335 86.834,279.041 86.834 C 264.818 86.834,262.805 86.390,267.301 84.246 C 270.205 82.861,270.202 82.878,270.202 65.517 C 270.202 48.191,270.199 48.170,267.349 46.811 C 265.247 45.809,264.786 45.141,265.622 44.305 C 265.852 44.075,271.067 43.887,277.212 43.887 L 288.383 43.887 288.549 63.480 M377.888 44.948 C 378.025 45.358,377.201 46.174,376.059 46.759 C 372.957 48.349,373.061 47.379,373.050 74.880 C 373.041 99.613,372.993 100.643,371.732 103.249 C 369.374 108.119,361.973 112.853,356.716 112.853 L 354.859 112.853 354.859 78.356 L 354.859 43.859 366.249 44.030 C 374.375 44.152,377.711 44.415,377.888 44.948 M213.187 68.277 C 219.428 79.581,221.351 82.564,223.040 83.561 C 227.426 86.148,225.798 86.816,214.643 87.006 L 204.538 87.178 198.821 76.526 C 195.676 70.668,193.103 65.235,193.103 64.454 C 193.103 62.131,203.770 51.757,204.714 53.162 C 205.110 53.750,208.922 60.552,213.187 68.277 M127.535 60.569 C 129.384 61.278,128.613 63.181,125.862 64.698 L 123.197 66.166 123.021 73.921 C 122.820 82.720,123.148 83.529,127.372 84.666 C 132.606 86.076,127.750 88.877,121.230 88.209 C 108.010 86.855,102.724 70.420,113.284 63.501 C 117.114 60.992,124.615 59.448,127.535 60.569 M341.757 96.124 C 343.885 97.577,343.887 97.582,343.722 102.163 C 343.532 107.402,343.944 108.178,347.408 109.111 C 349.440 109.658,349.843 110.035,349.843 111.388 L 349.843 113.010 344.671 112.737 C 335.397 112.248,329.572 108.321,329.572 102.558 C 329.572 96.104,336.424 92.486,341.757 96.124 M116.794 115.908 C 122.687 118.790,122.884 119.494,122.884 137.718 C 122.884 154.581,122.926 154.818,126.058 155.812 C 126.815 156.052,127.262 156.649,127.144 157.264 C 126.967 158.182,125.615 158.328,115.832 158.478 L 104.721 158.650 104.555 139.670 L 104.389 120.690 102.003 119.524 C 100.227 118.657,99.666 118.029,99.809 117.069 C 100.279 113.901,111.170 113.156,116.794 115.908 M144.829 116.025 C 150.324 119.058,150.470 119.609,150.470 137.257 C 150.470 153.257,150.810 155.486,153.250 155.486 C 153.706 155.486,154.448 155.931,154.899 156.474 C 156.364 158.240,154.368 158.601,143.103 158.611 L 132.288 158.621 132.288 139.857 C 132.288 119.771,132.189 119.122,129.109 119.122 C 126.837 119.122,127.506 115.675,129.937 114.852 C 133.531 113.635,141.659 114.275,144.829 116.025 M183.699 115.909 C 183.699 117.383,183.378 117.776,181.937 118.064 C 178.946 118.662,178.683 120.217,178.683 137.362 L 178.683 153.035 180.222 154.574 C 181.069 155.420,182.197 156.113,182.730 156.113 C 183.389 156.113,183.699 156.715,183.699 157.994 C 183.699 160.133,183.410 160.199,178.558 159.170 C 154.558 154.077,157.005 114.583,181.348 114.149 C 183.529 114.110,183.699 114.237,183.699 115.909 M198.306 115.867 C 206.416 119.455,209.700 125.446,209.711 136.677 C 209.724 150.608,204.123 157.707,191.693 159.518 L 188.715 159.951 188.715 158.032 C 188.715 156.744,189.024 156.113,189.655 156.113 C 192.860 156.113,193.103 154.755,193.103 136.883 C 193.103 119.004,192.910 117.868,189.871 117.868 C 188.993 117.868,188.715 117.395,188.715 115.900 L 188.715 113.931 192.116 114.282 C 193.987 114.475,196.772 115.188,198.306 115.867 M287.774 115.987 C 287.774 117.432,287.492 117.868,286.556 117.868 C 283.659 117.868,283.386 119.532,283.386 137.130 C 283.386 154.731,283.637 156.113,286.834 156.113 C 287.467 156.113,287.774 156.746,287.774 158.049 C 287.774 160.253,285.948 160.278,279.317 158.164 C 264.562 153.459,261.611 127.189,274.776 117.756 C 279.984 114.025,287.774 112.965,287.774 115.987 M298.560 114.758 C 305.175 116.596,310.598 124.217,311.369 132.759 L 311.779 137.304 301.344 137.304 C 291.327 137.304,290.909 137.254,290.909 136.050 C 290.909 135.031,291.327 134.796,293.145 134.796 C 297.556 134.796,297.806 134.349,297.806 126.436 C 297.806 118.763,297.465 117.868,294.545 117.868 C 293.013 117.868,292.790 117.629,292.790 115.987 C 292.790 113.854,294.213 113.551,298.560 114.758 M255.636 116.388 C 262.432 121.422,261.540 131.757,254.099 134.213 C 247.675 136.333,242.497 130.519,246.395 125.563 C 248.331 123.102,247.528 119.122,245.096 119.122 C 244.217 119.122,244.398 115.517,245.298 115.116 C 247.156 114.288,253.926 115.121,255.636 116.388 M95.446 134.953 L 95.611 154.545 97.671 155.452 C 102.776 157.698,100.261 158.307,85.885 158.307 C 71.649 158.307,69.380 157.762,74.402 155.551 C 77.083 154.370,77.098 154.268,77.107 136.207 C 77.117 119.347,76.842 117.868,73.705 117.868 C 72.597 117.868,71.889 116.837,72.414 115.987 C 72.649 115.607,77.224 115.361,84.041 115.361 L 95.280 115.361 95.446 134.953 M239.507 133.699 C 239.516 153.826,239.608 154.705,241.742 155.241 C 243.851 155.770,244.745 157.022,243.658 157.924 C 242.188 159.144,217.312 158.591,217.070 157.333 C 216.956 156.736,217.681 156.007,218.943 155.452 L 221.003 154.545 221.170 137.132 L 221.337 119.719 219.132 118.418 C 214.665 115.782,215.918 115.361,228.213 115.361 L 239.498 115.361 239.507 133.699 M307.712 149.603 C 308.120 152.446,300.525 158.299,294.828 159.533 C 292.887 159.953,292.790 159.885,292.790 158.113 C 292.790 156.498,293.068 156.200,294.894 155.858 C 297.593 155.351,302.120 152.353,303.976 149.843 C 305.584 147.668,307.417 147.550,307.712 149.603 M53.292 209.759 C 53.292 243.475,53.278 243.322,56.470 244.435 C 57.584 244.824,58.307 245.457,58.155 245.912 C 57.678 247.346,30.717 247.371,30.735 245.937 C 30.742 245.307,31.622 244.421,32.772 243.887 L 34.796 242.947 34.959 212.689 L 35.122 182.431 32.921 181.381 C 30.828 180.383,30.221 179.393,31.139 178.474 C 31.369 178.245,36.447 178.056,42.424 178.056 L 53.292 178.056 53.292 209.759 M225.229 210.502 L 225.392 242.947 227.416 243.887 C 232.778 246.379,230.433 247.022,215.987 247.022 C 201.542 247.022,199.197 246.379,204.559 243.887 L 206.583 242.947 206.746 212.666 L 206.909 182.386 204.865 181.531 C 198.854 179.014,201.420 178.056,214.178 178.056 L 225.067 178.056 225.229 210.502 M260.815 213.253 L 260.815 248.451 257.729 248.085 C 251.901 247.395,245.936 243.313,243.446 238.312 C 242.483 236.379,242.290 233.977,242.112 221.787 L 241.904 207.524 239.405 207.524 C 235.711 207.524,235.940 204.188,239.655 203.881 L 242.006 203.686 242.006 198.407 C 242.006 193.166,242.019 193.124,243.730 192.713 C 250.204 191.157,257.053 184.277,257.053 179.331 C 257.053 178.333,257.461 178.056,258.934 178.056 L 260.815 178.056 260.815 213.253 M306.734 210.502 L 306.897 242.947 308.921 243.887 C 314.283 246.379,311.938 247.022,297.492 247.022 C 283.047 247.022,280.701 246.379,286.064 243.887 L 288.088 242.947 288.251 212.666 L 288.413 182.386 286.370 181.531 C 280.359 179.014,282.925 178.056,295.682 178.056 L 306.572 178.056 306.734 210.502 M71.473 203.181 C 80.416 205.217,81.473 207.797,81.491 227.627 L 81.505 243.028 83.747 244.097 C 88.089 246.168,86.254 246.697,74.095 246.879 L 62.714 247.050 62.548 228.071 L 62.382 209.091 60.336 208.150 C 53.808 205.150,62.699 201.183,71.473 203.181 M114.107 204.389 C 114.107 205.799,113.817 206.270,112.950 206.270 C 109.657 206.270,109.404 207.635,109.404 225.392 C 109.404 243.149,109.657 244.514,112.950 244.514 C 113.828 244.514,114.107 244.987,114.107 246.481 L 114.107 248.449 110.551 248.031 C 85.089 245.038,86.762 203.507,112.382 202.571 C 113.894 202.516,114.107 202.740,114.107 204.389 M127.161 204.556 C 132.565 207.256,136.051 212.608,137.261 220.066 C 138.382 226.975,139.407 226.332,127.273 226.332 C 117.389 226.332,116.614 226.249,116.614 225.193 C 116.614 224.310,117.357 223.921,119.906 223.469 L 123.197 222.884 123.197 215.047 L 123.197 207.210 121.160 206.610 C 119.463 206.111,119.122 205.704,119.122 204.179 C 119.122 201.975,122.289 202.123,127.161 204.556 M165.517 204.268 C 165.517 205.713,165.077 206.222,163.063 207.111 C 160.481 208.250,159.248 210.426,159.248 213.841 C 159.248 217.971,152.074 219.842,148.798 216.567 C 144.439 212.207,149.826 204.928,158.703 203.183 C 164.240 202.095,165.517 202.299,165.517 204.268 M180.271 204.355 C 181.662 204.958,183.567 206.363,184.503 207.476 L 186.207 209.501 186.207 224.374 C 186.207 235.106,186.416 239.457,186.959 240.000 C 188.184 241.224,190.365 240.866,192.471 239.093 C 195.141 236.847,196.947 238.154,195.615 241.369 C 192.733 248.329,179.555 250.501,173.337 245.042 L 171.160 243.130 171.160 222.760 L 171.160 202.390 174.451 202.824 C 176.262 203.063,178.881 203.752,180.271 204.355 M328.488 204.683 C 334.040 207.496,334.163 207.943,334.175 225.392 C 334.188 242.784,334.222 243.004,337.125 244.217 C 341.622 246.095,339.416 246.699,327.387 246.879 L 316.006 247.050 315.840 228.071 L 315.674 209.091 313.628 208.150 C 312.022 207.413,311.617 206.876,311.747 205.659 C 312.116 202.202,322.408 201.602,328.488 204.683 M276.374 205.799 L 276.572 207.524 271.202 207.524 C 265.993 207.524,265.831 207.479,265.831 206.061 C 265.831 202.877,276.009 202.625,276.374 205.799 M164.526 220.443 C 166.281 221.117,165.718 223.589,163.611 224.462 C 160.380 225.800,159.875 227.156,159.875 234.483 C 159.875 242.155,160.461 243.490,164.286 244.520 C 169.142 245.828,166.500 248.301,160.304 248.248 C 145.410 248.122,139.406 231.584,151.188 223.140 C 154.145 221.021,161.929 219.447,164.526 220.443 M133.528 237.286 C 135.245 239.356,129.915 244.884,124.057 247.110 C 119.788 248.732,119.122 248.636,119.122 246.395 C 119.122 244.920,119.398 244.514,120.401 244.514 C 122.542 244.514,126.635 242.066,129.377 239.146 C 132.276 236.059,132.446 235.983,133.528 237.286 M275.847 239.167 C 277.467 241.119,270.242 248.243,266.614 248.270 C 264.535 248.286,265.873 244.823,268.396 243.659 C 269.789 243.017,271.545 241.539,272.298 240.375 C 273.798 238.059,274.679 237.759,275.847 239.167 "/>
</svg>
